<?xml version="1.0" encoding="UTF-8"?>
<svg width="32" height="32" viewBox="0 0 32 32" fill="none" xmlns="http://www.w3.org/2000/svg">
<path d="M29.71 13.09A8.09 8.09 0 0 0 20.34 2.68a8.08 8.08 0 0 0-13.7 2.9A8.08 8.08 0 0 0 2.29 18.91a8.09 8.09 0 0 0 9.37 10.41 8.08 8.08 0 0 0 13.7-2.9 8.08 8.08 0 0 0 4.35-13.33ZM16 24a8 8 0 1 1 8-8 8 8 0 0 1-8 8Z" fill="#10A37F"/>
<path d="M21.32 14.5a5.32 5.32 0 1 1-10.64 0 5.32 5.32 0 0 1 10.64 0Z" fill="#fff"/>
<path d="M18.5 16a2.5 2.5 0 1 1-5 0 2.5 2.5 0 0 1 5 0Z" fill="#10A37F"/>
</svg>
